<svg width="34" height="34" viewBox="0 0 34 34" fill="none" xmlns="http://www.w3.org/2000/svg">
<path fill-rule="evenodd" clip-rule="evenodd" d="M15.025 0.333496C11.2826 0.778168 7.7986 2.469 5.13371 5.13389C2.46881 7.79878 0.777985 11.2828 0.333313 15.0252H3.31998C3.74808 12.0729 5.11908 9.33808 7.22849 7.22867C9.3379 5.11926 12.0727 3.74826 15.025 3.32016V0.333496ZM18.975 3.32016V0.333496C22.7173 0.778452 26.2011 2.46937 28.8659 5.13421C31.5308 7.79905 33.2217 11.2829 33.6666 15.0252H30.6783C30.2502 12.0729 28.8792 9.33808 26.7698 7.22867C24.6604 5.11926 21.9256 3.74826 18.9733 3.32016M18.9733 30.6802C21.9253 30.2517 24.6597 28.8806 26.7688 26.7712C28.8779 24.6618 30.2486 21.9272 30.6766 18.9752H33.6666C33.2213 22.7176 31.5301 26.2014 28.865 28.8663C26.1998 31.5311 22.7158 33.2219 18.9733 33.6668V30.6802ZM3.31831 18.9752C3.74641 21.9274 5.11741 24.6622 7.22682 26.7717C9.33623 28.8811 12.071 30.2521 15.0233 30.6802V33.6668C11.2812 33.2218 7.79762 31.5308 5.13306 28.866C2.4685 26.2011 0.77791 22.7173 0.333313 18.9752H3.31831Z" fill="#07ACEE"/>
<path d="M9.10164 10.1568C9.10164 9.57352 9.5683 9.10352 10.145 9.10352H23.8533C24.1312 9.10528 24.3971 9.21714 24.5926 9.41458C24.7882 9.61203 24.8975 9.87895 24.8966 10.1568V23.8418C24.898 24.12 24.7888 24.3874 24.5932 24.5852C24.3976 24.783 24.1315 24.8951 23.8533 24.8969H10.145C9.86678 24.8951 9.60066 24.783 9.40504 24.5852C9.20943 24.3874 9.10031 24.12 9.10164 23.8418V10.1568Z" fill="url(#paint0_linear_1_2789)"/>
<path fill-rule="evenodd" clip-rule="evenodd" d="M22.9216 14.5336C22.9214 14.4687 22.934 14.4043 22.9587 14.3443C22.9834 14.2842 23.0197 14.2296 23.0655 14.1837C23.1114 14.1377 23.1658 14.1012 23.2258 14.0763C23.2858 14.0514 23.35 14.0386 23.415 14.0386H25.39C25.5208 14.0386 25.6463 14.0906 25.7388 14.1831C25.8313 14.2756 25.8833 14.4011 25.8833 14.5319C25.8833 14.6627 25.8313 14.7882 25.7388 14.8807C25.6463 14.9733 25.5208 15.0252 25.39 15.0252H23.415C23.2841 15.0252 23.1586 14.9733 23.0661 14.8807C22.9736 14.7882 22.9216 14.6627 22.9216 14.5319M22.9216 16.9986C22.9216 16.8677 22.9736 16.7423 23.0661 16.6497C23.1586 16.5572 23.2841 16.5052 23.415 16.5052H25.39C25.5208 16.5052 25.6463 16.5572 25.7388 16.6497C25.8313 16.7423 25.8833 16.8677 25.8833 16.9986C25.8833 17.1294 25.8313 17.2549 25.7388 17.3474C25.6463 17.4399 25.5208 17.4919 25.39 17.4919H23.415C23.2841 17.4919 23.1586 17.4399 23.0661 17.3474C22.9736 17.2549 22.9216 17.1294 22.9216 16.9986ZM24.4033 18.9736C24.2725 18.9736 24.147 19.0256 24.0545 19.1181C23.9619 19.2106 23.91 19.3361 23.91 19.4669C23.91 19.5977 23.9619 19.7232 24.0545 19.8157C24.147 19.9083 24.2725 19.9602 24.4033 19.9602H25.39C25.5208 19.9602 25.6463 19.9083 25.7388 19.8157C25.8313 19.7232 25.8833 19.5977 25.8833 19.4669C25.8833 19.3361 25.8313 19.2106 25.7388 19.1181C25.6463 19.0256 25.5208 18.9736 25.39 18.9736H24.4033Z" fill="url(#paint1_linear_1_2789)"/>
<path fill-rule="evenodd" clip-rule="evenodd" d="M11.0767 14.5336C11.0769 14.4687 11.0643 14.4043 11.0396 14.3443C11.0149 14.2842 10.9786 14.2296 10.9328 14.1837C10.8869 14.1377 10.8325 14.1012 10.7725 14.0763C10.7125 14.0514 10.6482 14.0386 10.5833 14.0386H8.60832C8.47748 14.0386 8.352 14.0906 8.25948 14.1831C8.16697 14.2756 8.11499 14.4011 8.11499 14.5319C8.11499 14.6627 8.16697 14.7882 8.25948 14.8807C8.352 14.9733 8.47748 15.0252 8.60832 15.0252H10.5833C10.714 15.0248 10.8393 14.9727 10.9317 14.8803C11.0241 14.7878 11.0762 14.6626 11.0767 14.5319M11.0767 16.9986C11.0767 16.8677 11.0247 16.7423 10.9322 16.6497C10.8396 16.5572 10.7142 16.5052 10.5833 16.5052H8.60832C8.47748 16.5052 8.352 16.5572 8.25948 16.6497C8.16697 16.7423 8.11499 16.8677 8.11499 16.9986C8.11499 17.1294 8.16697 17.2549 8.25948 17.3474C8.352 17.4399 8.47748 17.4919 8.60832 17.4919H10.5833C10.7139 17.4919 10.8391 17.4402 10.9316 17.348C11.024 17.2558 11.0762 17.1308 11.0767 17.0002M9.59499 18.9752C9.72583 18.9752 9.85131 19.0272 9.94383 19.1197C10.0363 19.2123 10.0883 19.3377 10.0883 19.4686C10.0883 19.5994 10.0363 19.7249 9.94383 19.8174C9.85131 19.9099 9.72583 19.9619 9.59499 19.9619H8.60832C8.47748 19.9619 8.352 19.9099 8.25948 19.8174C8.16697 19.7249 8.11499 19.5994 8.11499 19.4686C8.11499 19.3377 8.16697 19.2123 8.25948 19.1197C8.352 19.0272 8.47748 18.9752 8.60832 18.9752H9.59499Z" fill="url(#paint2_linear_1_2789)"/>
<path fill-rule="evenodd" clip-rule="evenodd" d="M14.0383 8.61038C14.0383 8.47954 14.0903 8.35406 14.1828 8.26154C14.2753 8.16902 14.4008 8.11704 14.5317 8.11704C14.6625 8.11704 14.788 8.16902 14.8805 8.26154C14.973 8.35406 15.025 8.47954 15.025 8.61038V10.5837C15.025 10.7146 14.973 10.84 14.8805 10.9326C14.788 11.0251 14.6625 11.077 14.5317 11.077C14.4008 11.077 14.2753 11.0251 14.1828 10.9326C14.0903 10.84 14.0383 10.7146 14.0383 10.5837V8.61038ZM16.505 8.61038C16.505 8.47932 16.5571 8.35362 16.6497 8.26095C16.7424 8.16828 16.8681 8.11621 16.9992 8.11621C17.1302 8.11621 17.2559 8.16828 17.3486 8.26095C17.4413 8.35362 17.4933 8.47932 17.4933 8.61038V9.59704C17.4933 9.72788 17.4414 9.85337 17.3488 9.94588C17.2563 10.0384 17.1308 10.0904 17 10.0904C16.8692 10.0904 16.7437 10.0384 16.6512 9.94588C16.5586 9.85337 16.5067 9.72788 16.5067 9.59704L16.505 8.61038ZM19.4667 8.11704C19.3358 8.11704 19.2103 8.16902 19.1178 8.26154C19.0253 8.35406 18.9733 8.47954 18.9733 8.61038V9.59704C18.9733 9.72811 19.0254 9.8538 19.1181 9.94647C19.2107 10.0391 19.3364 10.0912 19.4675 10.0912C19.5986 10.0912 19.7243 10.0391 19.8169 9.94647C19.9096 9.8538 19.9617 9.72811 19.9617 9.59704V8.61038C19.9617 8.54545 19.9488 8.48116 19.924 8.4212C19.8991 8.36124 19.8626 8.30678 19.8166 8.26095C19.7706 8.21512 19.716 8.17881 19.656 8.15412C19.5959 8.12942 19.5316 8.11683 19.4667 8.11704Z" fill="url(#paint3_linear_1_2789)"/>
<path fill-rule="evenodd" clip-rule="evenodd" d="M14.0383 25.3901C14.0383 25.521 14.0903 25.6464 14.1828 25.739C14.2753 25.8315 14.4008 25.8835 14.5317 25.8835C14.6625 25.8835 14.788 25.8315 14.8805 25.739C14.973 25.6464 15.025 25.521 15.025 25.3901V23.4168C15.0259 23.3189 14.9976 23.2229 14.9437 23.1412C14.8897 23.0594 14.8126 22.9957 14.7221 22.9581C14.6317 22.9205 14.5321 22.9108 14.4361 22.9301C14.3401 22.9495 14.2521 22.9971 14.1833 23.0668C14.091 23.1599 14.0389 23.2856 14.0383 23.4168V25.3901ZM16.505 25.3901C16.505 25.5212 16.5571 25.6469 16.6497 25.7396C16.7424 25.8322 16.8681 25.8843 16.9992 25.8843C17.1302 25.8843 17.2559 25.8322 17.3486 25.7396C17.4413 25.6469 17.4933 25.5212 17.4933 25.3901V24.4035C17.4831 24.2796 17.4268 24.1641 17.3354 24.08C17.244 23.9958 17.1243 23.949 17 23.949C16.8757 23.949 16.756 23.9958 16.6646 24.08C16.5732 24.1641 16.5169 24.2796 16.5067 24.4035L16.505 25.3901ZM19.4667 25.8835C19.3358 25.8835 19.2103 25.8315 19.1178 25.739C19.0253 25.6464 18.9733 25.521 18.9733 25.3901V24.4035C18.9733 24.2724 19.0254 24.1467 19.1181 24.054C19.2107 23.9614 19.3364 23.9093 19.4675 23.9093C19.5986 23.9093 19.7243 23.9614 19.8169 24.054C19.9096 24.1467 19.9617 24.2724 19.9617 24.4035V25.3901C19.9617 25.4551 19.9488 25.5193 19.924 25.5793C19.8991 25.6393 19.8626 25.6937 19.8166 25.7396C19.7706 25.7854 19.716 25.8217 19.656 25.8464C19.5959 25.8711 19.5316 25.8837 19.4667 25.8835Z" fill="url(#paint4_linear_1_2789)"/>
<path fill-rule="evenodd" clip-rule="evenodd" d="M13.545 17.0004C13.545 16.4766 13.7531 15.9742 14.1234 15.6039C14.4938 15.2335 14.9962 15.0254 15.52 15.0254C16.0438 15.0254 16.5461 15.2335 16.9165 15.6039C17.2869 15.9742 17.495 16.4766 17.495 17.0004V18.9754H17V17.9871H14.0383V18.9754H13.545V17.0004ZM14.0383 17.4937H17V17.0004C17 16.6077 16.844 16.231 16.5663 15.9533C16.2885 15.6756 15.9119 15.5196 15.5191 15.5196C15.1264 15.5196 14.7498 15.6756 14.472 15.9533C14.1943 16.231 14.0383 16.6077 14.0383 17.0004V17.4937ZM17.9883 15.0271H20.455V15.5204H19.4683V18.4804H20.455V18.9754H17.9883V18.4804H18.975V15.5204H17.9866L17.9883 15.0271Z" fill="#F0F3FA"/>
<defs>
<linearGradient id="paint0_linear_1_2789" x1="16.9991" y1="9.10352" x2="16.9991" y2="24.8969" gradientUnits="userSpaceOnUse">
<stop stop-color="#2EA7E0"/>
<stop offset="1" stop-color="#FEFEFE"/>
</linearGradient>
<linearGradient id="paint1_linear_1_2789" x1="0.333307" y1="17.0769" x2="35.2433" y2="17.0769" gradientUnits="userSpaceOnUse">
<stop stop-color="#9BD2FF"/>
<stop offset="1" stop-color="#E4EFF8"/>
</linearGradient>
<linearGradient id="paint2_linear_1_2789" x1="0.333324" y1="17.0002" x2="26.1767" y2="17.0002" gradientUnits="userSpaceOnUse">
<stop stop-color="#E8F1F8"/>
<stop offset="1" stop-color="#9BD2FF"/>
</linearGradient>
<linearGradient id="paint3_linear_1_2789" x1="17" y1="0.33371" x2="17" y2="33.667" gradientUnits="userSpaceOnUse">
<stop stop-color="#E6F0F8"/>
<stop offset="1" stop-color="#9BD2FF"/>
</linearGradient>
<linearGradient id="paint4_linear_1_2789" x1="17" y1="11.4218" x2="17" y2="33.5001" gradientUnits="userSpaceOnUse">
<stop stop-color="#9BD2FF"/>
<stop offset="1" stop-color="#E6F0F8"/>
</linearGradient>
</defs>
</svg>
