<svg width="40" height="40" viewBox="0 0 40 40" fill="none" xmlns="http://www.w3.org/2000/svg">
<path d="M10.8333 25H29.1666V35H10.8333V25Z" fill="#BF360C"/>
<path d="M8.33333 25.0002C10.1743 25.0002 11.6667 23.5078 11.6667 21.6668C11.6667 19.8259 10.1743 18.3335 8.33333 18.3335C6.49238 18.3335 5 19.8259 5 21.6668C5 23.5078 6.49238 25.0002 8.33333 25.0002Z" fill="#FFA726"/>
<path d="M31.6666 25.0002C33.5076 25.0002 35 23.5078 35 21.6668C35 19.8259 33.5076 18.3335 31.6666 18.3335C29.8257 18.3335 28.3333 19.8259 28.3333 21.6668C28.3333 23.5078 29.8257 25.0002 31.6666 25.0002Z" fill="#FFA726"/>
<path d="M32.5 15.8332C32.5 5.24988 7.5 8.91654 7.5 15.8332V24.1665C7.5 31.0832 13.0833 36.6665 20 36.6665C26.9167 36.6665 32.5 31.0832 32.5 24.1665V15.8332Z" fill="#F0CF9E"/>
<path d="M25 23.3333C25.9205 23.3333 26.6666 22.5871 26.6666 21.6667C26.6666 20.7462 25.9205 20 25 20C24.0795 20 23.3333 20.7462 23.3333 21.6667C23.3333 22.5871 24.0795 23.3333 25 23.3333Z" fill="#784719"/>
<path d="M15 23.3333C15.9205 23.3333 16.6666 22.5871 16.6666 21.6667C16.6666 20.7462 15.9205 20 15 20C14.0795 20 13.3333 20.7462 13.3333 21.6667C13.3333 22.5871 14.0795 23.3333 15 23.3333Z" fill="#784719"/>
<path d="M20 1.6665C12.9167 1.6665 2.5 6.49984 2.5 29.6665L10.8333 34.9998V19.9998L24.8333 11.8332L29.1667 17.4998V34.9998L37.5 28.1665C37.5 23.4998 36.75 3.99984 24.6667 3.99984L23.5 1.6665H20Z" fill="#1C1C1B"/>
<path d="M37.5 19.9998C37 19.9998 36.6667 20.3332 36.6667 20.8332V14.9998C36.6667 7.6665 30.6667 1.6665 23.3333 1.6665H15.8333C15.3333 1.6665 15 1.99984 15 2.49984C15 2.99984 15.3333 3.33317 15.8333 3.33317H23.3333C29.75 3.33317 35 8.58317 35 14.9998V23.3332C35 23.8332 35.3333 24.1665 35.8333 24.1665C36.3333 24.1665 36.6667 23.8332 36.6667 23.3332V24.9998C36.6667 28.2498 34.0833 30.8332 30.8333 30.8332H20C19.5 30.8332 19.1667 31.1665 19.1667 31.6665C19.1667 32.1665 19.5 32.4998 20 32.4998H30.8333C35 32.4998 38.3333 29.1665 38.3333 24.9998V20.8332C38.3333 20.3332 38 19.9998 37.5 19.9998Z" fill="#757575"/>
<path d="M37.5 18.3335H36.6667C35.75 18.3335 35 19.0835 35 20.0002V23.3335C35 24.2502 35.75 25.0002 36.6667 25.0002H37.5C38.4167 25.0002 39.1667 24.2502 39.1667 23.3335V20.0002C39.1667 19.0835 38.4167 18.3335 37.5 18.3335Z" fill="#37474F"/>
<path d="M20 33.3333C20.9205 33.3333 21.6666 32.5871 21.6666 31.6667C21.6666 30.7462 20.9205 30 20 30C19.0795 30 18.3333 30.7462 18.3333 31.6667C18.3333 32.5871 19.0795 33.3333 20 33.3333Z" fill="#37474F"/>
</svg>
